# xmcd
#
# Track frame offsets:
# 150
# 16022
# 34737
# 50276
# 69863
# 86301
# 110376
# 135523
# 157204
# 176606
# 195975
# 214841
# 232368
# 248093
# 265315
# 291061
#
# Disc length: 4106 seconds
#
# Revision: 1
# Processed by: cddbd v1.5PL3 Copyright (c) Steve Scherf et al.
# Submitted via: CedeCatalogueitor 2.6.0.0 http://personales.ya.com/cdcatalogueitor
#
DISCID=d7100810
DTITLE=Celine Dion - A New Day Has Come
DYEAR=2002
DGENRE=
TTITLE0=I'm Alive
TTITLE1=Right In Front Of You
TTITLE2=Have You Ever Been In Love
TTITLE3=Rain, Tax (It's Inevitable)
TTITLE4=A New Day Has Come (Radio Remix)
TTITLE5=Ten Days
TTITLE6=Goodbye's (The Saddest Word)
TTITLE7=Prayer
TTITLE8=I Surrender
TTITLE9=At Last
TTITLE10=Super Love
TTITLE11=Sorry For Love
TTITLE12=Aun Existe Amor
TTITLE13=The Greatest Reward
TTITLE14=When The Wrong One Loves You Right
TTITLE15=A New Day Has Come
EXTD=
EXTT0=
EXTT1=
EXTT2=
EXTT3=
EXTT4=
EXTT5=
EXTT6=
EXTT7=
EXTT8=
EXTT9=
EXTT10=
EXTT11=
EXTT12=
EXTT13=
EXTT14=
EXTT15=
PLAYORDER=
